HIERARCHY
ROOT root
{
  OFFSET 0 93.2929 0
  CHANNELS 6 Xposition Yposition Zposition Zrotation Xrotation Yrotation
  JOINT torso_1
  {
    OFFSET 0 5.07867 -1.15138
    CHANNELS 6 Xposition Yposition Zposition Zrotation Xrotation Yrotation
    JOINT torso_2
    {
      OFFSET 0 5.61661 1.07143
      CHANNELS 6 Xposition Yposition Zposition Zrotation Xrotation Yrotation
      JOINT torso_3
      {
        OFFSET -1.02604e-17 5.98978 0.11501
        CHANNELS 6 Xposition Yposition Zposition Zrotation Xrotation Yrotation
        JOINT torso_4
        {
          OFFSET -1.10457e-17 6.50583 -0.443523
          CHANNELS 6 Xposition Yposition Zposition Zrotation Xrotation Yrotation
          JOINT torso_5
          {
            OFFSET -1.97295e-17 7.60548 -1.50593
            CHANNELS 6 Xposition Yposition Zposition Zrotation Xrotation Yrotation
            JOINT torso_6
            {
              OFFSET -2.53307e-17 9.49737 -0.914492
              CHANNELS 6 Xposition Yposition Zposition Zrotation Xrotation Yrotation
              JOINT torso_7
              {
                OFFSET -2.90401e-17 10.5513 1.57691
                CHANNELS 6 Xposition Yposition Zposition Zrotation Xrotation Yrotation
                JOINT neck_1
                {
                  OFFSET -1.29193e-17 4.78644 0.715339
                  CHANNELS 6 Xposition Yposition Zposition Zrotation Xrotation Yrotation
                  JOINT neck_2
                  {
                    OFFSET -1.8116e-17 4.82109 0.421791
                    CHANNELS 6 Xposition Yposition Zposition Zrotation Xrotation Yrotation
                    JOINT head
                    {
                      OFFSET -2.00958e-17 4.83041 0.765062
                      CHANNELS 6 Xposition Yposition Zposition Zrotation Xrotation Yrotation
                      End Site
                      {
                        OFFSET 0 0.1 0
                      }
                    }
                  }
                }
                JOINT l_shoulder
                {
                  OFFSET 1.23299 -7.60731 7.53374
                  CHANNELS 6 Xposition Yposition Zposition Zrotation Xrotation Yrotation
                  JOINT l_up_arm
                  {
                    OFFSET 12.9547 3.2495 -3.26872
                    CHANNELS 6 Xposition Yposition Zposition Zrotation Xrotation Yrotation
                    JOINT l_low_arm
                    {
                      OFFSET 29.2081 0.0598081 0.137039
                      CHANNELS 6 Xposition Yposition Zposition Zrotation Xrotation Yrotation
                      JOINT l_hand
                      {
                        OFFSET 24.234 0.0496219 0.113701
                        CHANNELS 6 Xposition Yposition Zposition Zrotation Xrotation Yrotation
                        End Site
                        {
                          OFFSET 0.1 0 0
                        }
                      }
                    }
                  }
                }
                JOINT r_shoulder
                {
                  OFFSET -1.23299 -7.60729 7.53365
                  CHANNELS 6 Xposition Yposition Zposition Zrotation Xrotation Yrotation
                  JOINT r_up_arm
                  {
                    OFFSET -12.9547 3.2495 -3.26872
                    CHANNELS 6 Xposition Yposition Zposition Zrotation Xrotation Yrotation
                    JOINT r_low_arm
                    {
                      OFFSET -29.2081 0.0598081 0.137039
                      CHANNELS 6 Xposition Yposition Zposition Zrotation Xrotation Yrotation
                      JOINT r_hand
                      {
                        OFFSET -24.234 0.0496218 0.113702
                        CHANNELS 6 Xposition Yposition Zposition Zrotation Xrotation Yrotation
                        End Site
                        {
                          OFFSET -0.1 0 0
                        }
                      }
                    }
                  }
                }
              }
            }
          }
        }
      }
    }
  }
  JOINT l_up_leg
  {
    OFFSET 9.23673 -4.20556 2.0327
    CHANNELS 6 Xposition Yposition Zposition Zrotation Xrotation Yrotation
    JOINT l_low_leg
    {
      OFFSET -0.852353 -38.7721 -0.655187
      CHANNELS 6 Xposition Yposition Zposition Zrotation Xrotation Yrotation
      JOINT l_foot
      {
        OFFSET -2.32622 -40.4017 -6.04875
        CHANNELS 6 Xposition Yposition Zposition Zrotation Xrotation Yrotation
        JOINT l_toes
        {
          OFFSET 0.779096 -9.8844 12.4959
          CHANNELS 6 Xposition Yposition Zposition Zrotation Xrotation Yrotation
          End Site
          {
            OFFSET 0 0 0.1
          }
        }
      }
    }
  }
  JOINT r_up_leg
  {
    OFFSET -9.23673 -4.20556 2.0327
    CHANNELS 6 Xposition Yposition Zposition Zrotation Xrotation Yrotation
    JOINT r_low_leg
    {
      OFFSET 0.852353 -38.7721 -0.655187
      CHANNELS 6 Xposition Yposition Zposition Zrotation Xrotation Yrotation
      JOINT r_foot
      {
        OFFSET 2.32622 -40.4017 -6.04875
        CHANNELS 6 Xposition Yposition Zposition Zrotation Xrotation Yrotation
        JOINT r_toes
        {
          OFFSET -0.779096 -9.8844 12.4959
          CHANNELS 6 Xposition Yposition Zposition Zrotation Xrotation Yrotation
          End Site
          {
            OFFSET 0 0 0.1
          }
        }
      }
    }
  }
}
MOTION
Frames: 4
Frame Time: 0.016667
0 93.2929 0 -0 0 -0 0 5.07867 -1.15138 -0 0 -0 0 5.61661 1.07143 -0 0 -0 -1.02604e-17 5.98978 0.11501 -0 0 -0 -1.10457e-17 6.50583 -0.443523 -0 0 -0 -1.97295e-17 7.60548 -1.50593 -0 0 -0 -2.53307e-17 9.49737 -0.914492 -0 0 -0 -2.90401e-17 10.5513 1.57691 -0 0 -0 -1.29193e-17 4.78644 0.715339 -0 0 -0 -1.8116e-17 4.82109 0.421791 -0 0 -0 -2.00958e-17 4.83041 0.765062 -0 0 -0 1.23299 -7.60731 7.53374 -0 0 -0 12.9547 3.2495 -3.26872 -0 0 -0 29.2081 0.0598081 0.137039 -0 0 -0 24.234 0.0496219 0.113701 -0 0 -0 -1.23299 -7.60729 7.53365 -0 0 -0 -12.9547 3.2495 -3.26872 -0 0 -0 -29.2081 0.0598081 0.137039 -0 0 -0 -24.234 0.0496218 0.113702 -0 0 -0 9.23673 -4.20556 2.0327 -0 0 -0 -0.852353 -38.7721 -0.655187 -0 0 -0 -2.32622 -40.4017 -6.04875 -0 0 -0 0.779096 -9.8844 12.4959 -0 0 -0 -9.23673 -4.20556 2.0327 -0 0 -0 0.852353 -38.7721 -0.655187 -0 0 -0 2.32622 -40.4017 -6.04875 -0 0 -0 -0.779096 -9.8844 12.4959 -0 0 -0 
1.75306 93.3635 0.756013 -0.734519 -0.499548 4.12585 0 5.07867 -1.15138 0.179791 0.306492 0.0342497 0 5.61661 1.07143 0.0524538 0.365004 0.0749415 -1.02604e-17 5.98978 0.11501 0.0305709 0.560952 0.111534 -1.10457e-17 6.50583 -0.443523 0.0177635 0.6828 0.114854 -1.97295e-17 7.60548 -1.50593 0.0558881 0.666283 0.0629463 -2.53307e-17 9.49737 -0.914492 0.063508 0.553059 -0.0680512 -2.90401e-17 10.5513 1.57691 -0.00248353 0.13989 -0.0134416 -1.29193e-17 4.78644 0.715339 0.452443 -4.09815 0.0193886 -1.8116e-17 4.82109 0.421791 -0.692777 -2.13143 -0.511201 -2.00958e-17 4.83041 0.765062 -0.937101 0.527638 -1.11535 1.23299 -7.60731 7.53374 -3.75161 3.37867 -4.34263 12.9547 3.2495 -3.26872 -83.2941 7.83934 -2.38123 29.2081 0.0598081 0.137039 1.06467 -0.042112 -5.13804 24.234 0.0496219 0.113701 -0.477429 -13.4121 -3.35509 -1.23299 -7.60729 7.53365 3.32984 4.87367 2.91269 -12.9547 3.2495 -3.26872 80.5495 20.0457 7.07668 -29.2081 0.0598081 0.137039 -1.5093 -0.0883763 7.29204 -24.234 0.0496218 0.113702 1.65004 -23.3325 2.35061 9.23673 -4.20556 2.0327 0.831665 0.204932 -14.1717 -0.852353 -38.7721 -0.655187 0.317656 -1.1843 0.023957 -2.32622 -40.4017 -6.04875 3.4492 1.69586 14.6267 0.779096 -9.8844 12.4959 4.96962e-17 -7.95139e-16 1.2424e-17 -9.23673 -4.20556 2.0327 -0.770023 -0.568875 18.4694 0.852353 -38.7721 -0.655187 0.567603 2.11974 0.0265017 2.32622 -40.4017 -6.04875 -1.30305 0.28065 -14.9601 -0.779096 -9.8844 12.4959 -1.98785e-16 -5.8393e-16 -1.27595e-14 
1.72278 93.3654 0.776476 -0.70325 -0.540468 4.16042 0 5.07867 -1.15138 0.185146 0.291029 0.0395085 0 5.61661 1.07143 0.0547377 0.354852 0.0804064 -1.02604e-17 5.98978 0.11501 0.030073 0.557128 0.116544 -1.10457e-17 6.50583 -0.443523 0.0145833 0.690293 0.119419 -1.97295e-17 7.60548 -1.50593 0.0510119 0.678093 0.0681364 -2.53307e-17 9.49737 -0.914492 0.0583539 0.568624 -0.0618767 -2.90401e-17 10.5513 1.57691 -0.0025286 0.139742 -0.0134129 -1.29193e-17 4.78644 0.715339 0.440534 -4.09606 0.0181408 -1.8116e-17 4.82109 0.421791 -0.729791 -2.08901 -0.513442 -2.00958e-17 4.83041 0.765062 -0.971264 0.604266 -1.13658 1.23299 -7.60731 7.53374 -3.73728 3.37731 -4.35789 12.9547 3.2495 -3.26872 -83.3047 7.92807 -2.38764 29.2081 0.0598081 0.137039 1.0617 -0.0418601 -5.12363 24.234 0.0496219 0.113701 -0.483145 -13.4546 -3.33991 -1.23299 -7.60729 7.53365 3.35858 4.87125 2.93633 -12.9547 3.2495 -3.26872 80.4932 20.0757 7.10214 -29.2081 0.0598081 0.137039 -1.51257 -0.0887776 7.3079 -24.234 0.0496218 0.113702 1.67034 -23.4493 2.35646 9.23673 -4.20556 2.0327 0.827678 0.253727 -14.2204 -0.852353 -38.7721 -0.655187 0.318849 -1.18874 0.0240593 -2.32622 -40.4017 -6.04875 3.40489 1.71376 14.6291 0.779096 -9.8844 12.4959 4.96962e-17 -7.95139e-16 1.2424e-17 -9.23673 -4.20556 2.0327 -0.77798 -0.490029 18.4411 0.852353 -38.7721 -0.655187 0.561798 2.09805 0.0263368 2.32622 -40.4017 -6.04875 -1.33582 0.278 -14.9552 -0.779096 -9.8844 12.4959 -4.63641e-16 -5.67376e-16 -1.27512e-14 
1.69162 93.3647 0.797529 -0.652219 -0.565556 4.20831 0 5.07867 -1.15138 0.182369 0.274321 0.0462737 0 5.61661 1.07143 0.049874 0.343471 0.0861894 -1.02604e-17 5.98978 0.11501 0.0240921 0.551896 0.121735 -1.10457e-17 6.50583 -0.443523 0.00757886 0.696408 0.12404 -1.97295e-17 7.60548 -1.50593 0.0441658 0.688141 0.0740492 -2.53307e-17 9.49737 -0.914492 0.0533905 0.581868 -0.0548948 -2.90401e-17 10.5513 1.57691 -0.0025602 0.13956 -0.0133862 -1.29193e-17 4.78644 0.715339 0.427796 -4.09475 0.010962 -1.8116e-17 4.82109 0.421791 -0.764223 -2.04674 -0.518345 -2.00958e-17 4.83041 0.765062 -1.00086 0.678469 -1.15798 1.23299 -7.60731 7.53374 -3.71445 3.37454 -4.37062 12.9547 3.2495 -3.26872 -83.3212 8.01297 -2.39249 29.2081 0.0598081 0.137039 1.05875 -0.0416114 -5.10937 24.234 0.0496219 0.113701 -0.491572 -13.4691 -3.33895 -1.23299 -7.60729 7.53365 3.386 4.8678 2.95925 -12.9547 3.2495 -3.26872 80.445 20.0846 7.13283 -29.2081 0.0598081 0.137039 -1.5149 -0.089065 7.31922 -24.234 0.0496218 0.113702 1.68141 -23.5197 2.36123 9.23673 -4.20556 2.0327 0.803355 0.27994 -14.2803 -0.852353 -38.7721 -0.655187 0.316739 -1.18088 0.0238785 -2.32622 -40.4017 -6.04875 3.35753 1.72913 14.6314 0.779096 -9.8844 12.4959 2.48291e-16 -7.88933e-16 6.21795e-18 -9.23673 -4.20556 2.0327 -0.80759 -0.412507 18.3919 0.852353 -38.7721 -0.655187 0.552121 2.0619 0.0260571 2.32622 -40.4017 -6.04875 -1.37712 0.251357 -14.9515 -0.779096 -9.8844 12.4959 -7.94949e-16 -5.52876e-16 -1.27347e-14 
